<?xml version="1.0"?>
<svg xmlns="http://www.w3.org/2000/svg" xmlns:xlink="http://www.w3.org/1999/xlink" xmlns:svgjs="http://svgjs.com/svgjs" version="1.1" width="512" height="512" x="0" y="0" viewBox="0 0 512 512" style="enable-background:new 0 0 512 512" xml:space="preserve" class=""><g><g xmlns="http://www.w3.org/2000/svg"><g><path d="m423.48 226.391c-50.078-130.465-122.17-226.523-167.48-226.391-45.31-.132-117.402 95.926-167.48 226.391-53.903 140.429-61.882 267.521-17.823 283.868 27.641 10.256 69.197-25.519 109.639-88.274 18.751 5.327 44.897 8.634 73.827 8.634 30.554 0 58.006-3.688 76.916-9.55 40.626 63.32 82.45 99.495 110.224 89.19 44.059-16.347 36.08-143.439-17.823-283.868zm-169.676 146.883c-32.809 0-55.692-7.553-55.692-7.553 17.199-32.379 33.672-68.466 48.507-107.114 3.263-8.502 6.376-16.959 9.353-25.362 2.977 8.403 6.089 16.86 9.353 25.362 14.943 38.931 31.549 75.265 48.884 107.826-.001-.001-24.667 6.841-60.405 6.841z" fill="#f0c14b" data-original="#d493ff" style="" class=""/></g><g><path d="m423.48 226.391c-50.078-130.465-122.171-226.523-167.48-226.391-6.382-.018-13.295 1.872-20.604 5.498 44.578 22.114 103.852 108.804 146.876 220.893 50.175 130.717 60.55 249.859 26.211 278.901 12.176 6.576 23.32 8.492 32.82 4.967 44.059-16.347 36.08-143.439-17.823-283.868z" fill="#cd9042" data-original="#ca7aff" style="" class=""/><path d="m289.871 421.069c-14.553 4.511-34.174 7.726-56.365 8.972 6.675.377 13.581.577 20.657.577 14.363 0 28.023-.824 40.45-2.296-1.582-2.377-3.163-4.792-4.742-7.253z" fill="#f0c14b" data-original="#d493ff" style="" class=""/></g><path d="m151.946 179.254c-1.12 0-2.257-.244-3.334-.761-3.848-1.845-5.473-6.459-3.629-10.307 34.154-71.267 82.83-121.517 84.885-123.621 2.981-3.053 7.873-3.109 10.926-.128 3.052 2.981 3.11 7.872.13 10.925-.486.498-48.996 50.625-82.006 119.503-1.326 2.77-4.092 4.388-6.972 4.389z" fill="#ffffff" data-original="#ffffff" style="" class=""/></g></g></svg>
